<mxfile host="app.diagrams.net" modified="2024-01-03T08:56:09.639Z" agent="Mozilla/5.0 (Windows NT 10.0; Win64; x64) AppleWebKit/537.36 (KHTML, like Gecko) Chrome/120.0.0.0 Safari/537.36 Edg/120.0.0.0" etag="ntBfsa-UR6YMDW3lqtcs" version="22.1.16" type="github">
  <diagram name="페이지-1" id="CnCt6xCvD2SzTqOOCQqH">
    <mxGraphModel dx="1937" dy="1190" grid="1" gridSize="10" guides="1" tooltips="1" connect="1" arrows="1" fold="1" page="1" pageScale="1" pageWidth="827" pageHeight="1169" math="0" shadow="0">
      <root>
        <mxCell id="0" />
        <mxCell id="1" parent="0" />
        <mxCell id="ThEoqWvwTluzFiu1jKSh-9" value="&lt;font&gt;고객&lt;/font&gt;" style="whiteSpace=wrap;html=1;align=center;fontSize=16;" parent="1" vertex="1">
          <mxGeometry x="300" y="220" width="100" height="40" as="geometry" />
        </mxCell>
        <mxCell id="ThEoqWvwTluzFiu1jKSh-10" value="고객명" style="ellipse;whiteSpace=wrap;html=1;align=center;fontSize=16;" parent="1" vertex="1">
          <mxGeometry x="210" y="150" width="100" height="40" as="geometry" />
        </mxCell>
        <mxCell id="ThEoqWvwTluzFiu1jKSh-13" value="" style="endArrow=none;html=1;rounded=0;fontSize=12;startSize=8;endSize=8;curved=1;exitX=0.5;exitY=1;exitDx=0;exitDy=0;entryX=0.5;entryY=0;entryDx=0;entryDy=0;" parent="1" source="ThEoqWvwTluzFiu1jKSh-10" target="ThEoqWvwTluzFiu1jKSh-9" edge="1">
          <mxGeometry relative="1" as="geometry">
            <mxPoint x="240" y="200" as="sourcePoint" />
            <mxPoint x="400" y="200" as="targetPoint" />
          </mxGeometry>
        </mxCell>
        <mxCell id="ThEoqWvwTluzFiu1jKSh-14" value="전화번호" style="ellipse;whiteSpace=wrap;html=1;align=center;fontSize=16;fontStyle=4" parent="1" vertex="1">
          <mxGeometry x="270" y="100" width="100" height="40" as="geometry" />
        </mxCell>
        <mxCell id="ThEoqWvwTluzFiu1jKSh-15" value="" style="endArrow=none;html=1;rounded=0;fontSize=12;startSize=8;endSize=8;curved=1;exitX=0.5;exitY=1;exitDx=0;exitDy=0;entryX=0.5;entryY=0;entryDx=0;entryDy=0;" parent="1" source="ThEoqWvwTluzFiu1jKSh-14" target="ThEoqWvwTluzFiu1jKSh-9" edge="1">
          <mxGeometry relative="1" as="geometry">
            <mxPoint x="350" y="170" as="sourcePoint" />
            <mxPoint x="460" y="190" as="targetPoint" />
          </mxGeometry>
        </mxCell>
        <mxCell id="ThEoqWvwTluzFiu1jKSh-16" value="이메일" style="ellipse;whiteSpace=wrap;html=1;align=center;fontSize=16;fontStyle=4" parent="1" vertex="1">
          <mxGeometry x="380" y="100" width="100" height="40" as="geometry" />
        </mxCell>
        <mxCell id="ThEoqWvwTluzFiu1jKSh-17" value="" style="endArrow=none;html=1;rounded=0;fontSize=12;startSize=8;endSize=8;curved=1;exitX=0.5;exitY=1;exitDx=0;exitDy=0;entryX=0.5;entryY=0;entryDx=0;entryDy=0;" parent="1" source="ThEoqWvwTluzFiu1jKSh-16" target="ThEoqWvwTluzFiu1jKSh-9" edge="1">
          <mxGeometry relative="1" as="geometry">
            <mxPoint x="450" y="220" as="sourcePoint" />
            <mxPoint x="450" y="270" as="targetPoint" />
          </mxGeometry>
        </mxCell>
        <mxCell id="ThEoqWvwTluzFiu1jKSh-18" value="고객코드" style="ellipse;whiteSpace=wrap;html=1;align=center;fontSize=16;fontStyle=4;fontColor=#FF0000;" parent="1" vertex="1">
          <mxGeometry x="450" y="150" width="100" height="40" as="geometry" />
        </mxCell>
        <mxCell id="ThEoqWvwTluzFiu1jKSh-19" value="" style="endArrow=none;html=1;rounded=0;fontSize=12;startSize=8;endSize=8;curved=1;exitX=0;exitY=0.5;exitDx=0;exitDy=0;entryX=0.5;entryY=0;entryDx=0;entryDy=0;" parent="1" source="ThEoqWvwTluzFiu1jKSh-18" target="ThEoqWvwTluzFiu1jKSh-9" edge="1">
          <mxGeometry relative="1" as="geometry">
            <mxPoint x="510" y="260" as="sourcePoint" />
            <mxPoint x="490" y="300" as="targetPoint" />
          </mxGeometry>
        </mxCell>
        <mxCell id="ThEoqWvwTluzFiu1jKSh-22" value="가입일&lt;br&gt;" style="ellipse;whiteSpace=wrap;html=1;align=center;fontSize=16;" parent="1" vertex="1">
          <mxGeometry x="170" y="300" width="100" height="40" as="geometry" />
        </mxCell>
        <mxCell id="ThEoqWvwTluzFiu1jKSh-23" value="" style="endArrow=none;html=1;rounded=0;fontSize=12;startSize=8;endSize=8;curved=1;exitX=0.5;exitY=0;exitDx=0;exitDy=0;" parent="1" source="ThEoqWvwTluzFiu1jKSh-22" target="ThEoqWvwTluzFiu1jKSh-9" edge="1">
          <mxGeometry relative="1" as="geometry">
            <mxPoint x="230" y="330" as="sourcePoint" />
            <mxPoint x="340" y="350" as="targetPoint" />
          </mxGeometry>
        </mxCell>
        <mxCell id="ThEoqWvwTluzFiu1jKSh-27" value="" style="endArrow=none;html=1;rounded=0;fontSize=12;startSize=8;endSize=8;curved=1;entryX=1;entryY=0.5;entryDx=0;entryDy=0;exitX=0;exitY=0.5;exitDx=0;exitDy=0;" parent="1" source="d2EKSEdaq0tNLFLeg7t2-2" target="ThEoqWvwTluzFiu1jKSh-9" edge="1">
          <mxGeometry relative="1" as="geometry">
            <mxPoint x="454" y="330" as="sourcePoint" />
            <mxPoint x="580" y="455" as="targetPoint" />
            <Array as="points" />
          </mxGeometry>
        </mxCell>
        <mxCell id="ThEoqWvwTluzFiu1jKSh-28" value="주소&lt;br&gt;" style="ellipse;whiteSpace=wrap;html=1;align=center;fontSize=16;fontColor=#FF0000;" parent="1" vertex="1">
          <mxGeometry x="140" y="205" width="100" height="40" as="geometry" />
        </mxCell>
        <mxCell id="ThEoqWvwTluzFiu1jKSh-29" value="" style="endArrow=none;html=1;rounded=0;fontSize=12;startSize=8;endSize=8;curved=1;entryX=0;entryY=0.5;entryDx=0;entryDy=0;" parent="1" source="ThEoqWvwTluzFiu1jKSh-28" target="ThEoqWvwTluzFiu1jKSh-9" edge="1">
          <mxGeometry relative="1" as="geometry">
            <mxPoint x="170" y="255" as="sourcePoint" />
            <mxPoint x="280" y="275" as="targetPoint" />
          </mxGeometry>
        </mxCell>
        <mxCell id="ThEoqWvwTluzFiu1jKSh-31" value="&lt;font&gt;상세주소&lt;/font&gt;" style="ellipse;whiteSpace=wrap;html=1;align=center;fontSize=16;" parent="1" vertex="1">
          <mxGeometry x="20" y="280" width="100" height="40" as="geometry" />
        </mxCell>
        <mxCell id="ThEoqWvwTluzFiu1jKSh-32" value="" style="endArrow=none;html=1;rounded=0;fontSize=12;startSize=8;endSize=8;curved=1;exitX=0.5;exitY=0;exitDx=0;exitDy=0;" parent="1" source="ThEoqWvwTluzFiu1jKSh-31" edge="1">
          <mxGeometry relative="1" as="geometry">
            <mxPoint x="80" y="310" as="sourcePoint" />
            <mxPoint x="157" y="240" as="targetPoint" />
          </mxGeometry>
        </mxCell>
        <mxCell id="ThEoqWvwTluzFiu1jKSh-34" value="&lt;font&gt;기본주소&lt;/font&gt;" style="ellipse;whiteSpace=wrap;html=1;align=center;fontSize=16;" parent="1" vertex="1">
          <mxGeometry x="18.36" y="180" width="100" height="40" as="geometry" />
        </mxCell>
        <mxCell id="ThEoqWvwTluzFiu1jKSh-35" value="" style="endArrow=none;html=1;rounded=0;fontSize=12;startSize=8;endSize=8;curved=1;exitX=0.5;exitY=1;exitDx=0;exitDy=0;entryX=0;entryY=1;entryDx=0;entryDy=0;" parent="1" source="ThEoqWvwTluzFiu1jKSh-34" target="ThEoqWvwTluzFiu1jKSh-28" edge="1">
          <mxGeometry relative="1" as="geometry">
            <mxPoint x="78.36" y="210" as="sourcePoint" />
            <mxPoint x="170.00466094067258" y="199.14213562373084" as="targetPoint" />
          </mxGeometry>
        </mxCell>
        <mxCell id="ThEoqWvwTluzFiu1jKSh-36" value="지역" style="whiteSpace=wrap;html=1;align=center;fontSize=16;" parent="1" vertex="1">
          <mxGeometry x="300" y="657" width="100" height="40" as="geometry" />
        </mxCell>
        <mxCell id="ThEoqWvwTluzFiu1jKSh-37" value="지역명" style="ellipse;whiteSpace=wrap;html=1;align=center;fontSize=16;" parent="1" vertex="1">
          <mxGeometry x="170" y="697" width="100" height="40" as="geometry" />
        </mxCell>
        <mxCell id="ThEoqWvwTluzFiu1jKSh-38" value="지역코드" style="ellipse;whiteSpace=wrap;html=1;align=center;fontSize=16;fontStyle=4;fontColor=#FF0000;" parent="1" vertex="1">
          <mxGeometry x="170" y="612" width="100" height="40" as="geometry" />
        </mxCell>
        <mxCell id="ThEoqWvwTluzFiu1jKSh-39" value="" style="endArrow=none;html=1;rounded=0;fontSize=12;startSize=8;endSize=8;curved=1;entryX=0;entryY=0.5;entryDx=0;entryDy=0;exitX=0.68;exitY=0.95;exitDx=0;exitDy=0;exitPerimeter=0;" parent="1" source="ThEoqWvwTluzFiu1jKSh-38" target="ThEoqWvwTluzFiu1jKSh-36" edge="1">
          <mxGeometry relative="1" as="geometry">
            <mxPoint x="250" y="667" as="sourcePoint" />
            <mxPoint x="330" y="727" as="targetPoint" />
          </mxGeometry>
        </mxCell>
        <mxCell id="ThEoqWvwTluzFiu1jKSh-40" value="" style="endArrow=none;html=1;rounded=0;fontSize=12;startSize=8;endSize=8;curved=1;entryX=0;entryY=0.5;entryDx=0;entryDy=0;exitX=0.68;exitY=0.025;exitDx=0;exitDy=0;exitPerimeter=0;" parent="1" source="ThEoqWvwTluzFiu1jKSh-37" target="ThEoqWvwTluzFiu1jKSh-36" edge="1">
          <mxGeometry relative="1" as="geometry">
            <mxPoint x="248" y="687" as="sourcePoint" />
            <mxPoint x="350" y="704" as="targetPoint" />
          </mxGeometry>
        </mxCell>
        <mxCell id="ThEoqWvwTluzFiu1jKSh-41" value="제품" style="whiteSpace=wrap;html=1;align=center;fontSize=16;" parent="1" vertex="1">
          <mxGeometry x="560" y="387" width="100" height="40" as="geometry" />
        </mxCell>
        <mxCell id="ThEoqWvwTluzFiu1jKSh-42" value="제품코드&lt;span style=&quot;white-space: pre;&quot;&gt;&#x9;&lt;/span&gt;" style="ellipse;whiteSpace=wrap;html=1;align=center;fontSize=16;fontStyle=4;fontColor=#FF0000;" parent="1" vertex="1">
          <mxGeometry x="520" y="482" width="100" height="40" as="geometry" />
        </mxCell>
        <mxCell id="ThEoqWvwTluzFiu1jKSh-43" value="" style="endArrow=none;html=1;rounded=0;fontSize=12;startSize=8;endSize=8;curved=1;exitX=0.5;exitY=0;exitDx=0;exitDy=0;entryX=0.5;entryY=1;entryDx=0;entryDy=0;" parent="1" source="ThEoqWvwTluzFiu1jKSh-42" target="ThEoqWvwTluzFiu1jKSh-41" edge="1">
          <mxGeometry relative="1" as="geometry">
            <mxPoint x="570" y="617" as="sourcePoint" />
            <mxPoint x="610" y="427" as="targetPoint" />
          </mxGeometry>
        </mxCell>
        <mxCell id="ThEoqWvwTluzFiu1jKSh-44" value="제품명" style="ellipse;whiteSpace=wrap;html=1;align=center;fontSize=16;" parent="1" vertex="1">
          <mxGeometry x="630" y="472" width="100" height="40" as="geometry" />
        </mxCell>
        <mxCell id="ThEoqWvwTluzFiu1jKSh-45" value="" style="endArrow=none;html=1;rounded=0;fontSize=12;startSize=8;endSize=8;curved=1;exitX=0.5;exitY=0;exitDx=0;exitDy=0;entryX=0.5;entryY=1;entryDx=0;entryDy=0;" parent="1" source="ThEoqWvwTluzFiu1jKSh-44" target="ThEoqWvwTluzFiu1jKSh-41" edge="1">
          <mxGeometry relative="1" as="geometry">
            <mxPoint x="730" y="602" as="sourcePoint" />
            <mxPoint x="610" y="422" as="targetPoint" />
          </mxGeometry>
        </mxCell>
        <mxCell id="ThEoqWvwTluzFiu1jKSh-49" value="제품구분" style="ellipse;whiteSpace=wrap;html=1;align=center;fontSize=16;fontStyle=0" parent="1" vertex="1">
          <mxGeometry x="470" y="317" width="100" height="40" as="geometry" />
        </mxCell>
        <mxCell id="ThEoqWvwTluzFiu1jKSh-50" value="" style="endArrow=none;html=1;rounded=0;fontSize=12;startSize=8;endSize=8;curved=1;exitX=0.5;exitY=1;exitDx=0;exitDy=0;" parent="1" source="ThEoqWvwTluzFiu1jKSh-49" target="ThEoqWvwTluzFiu1jKSh-41" edge="1">
          <mxGeometry relative="1" as="geometry">
            <mxPoint x="500" y="367" as="sourcePoint" />
            <mxPoint x="610" y="387" as="targetPoint" />
          </mxGeometry>
        </mxCell>
        <mxCell id="ThEoqWvwTluzFiu1jKSh-53" value="가격" style="ellipse;whiteSpace=wrap;html=1;align=center;fontSize=16;fontStyle=0" parent="1" vertex="1">
          <mxGeometry x="660" y="317" width="100" height="40" as="geometry" />
        </mxCell>
        <mxCell id="ThEoqWvwTluzFiu1jKSh-54" value="" style="endArrow=none;html=1;rounded=0;fontSize=12;startSize=8;endSize=8;curved=1;exitX=0.5;exitY=1;exitDx=0;exitDy=0;" parent="1" source="ThEoqWvwTluzFiu1jKSh-53" target="ThEoqWvwTluzFiu1jKSh-41" edge="1">
          <mxGeometry relative="1" as="geometry">
            <mxPoint x="710" y="387" as="sourcePoint" />
            <mxPoint x="600" y="387" as="targetPoint" />
          </mxGeometry>
        </mxCell>
        <mxCell id="d2EKSEdaq0tNLFLeg7t2-2" value="구매" style="shape=rhombus;perimeter=rhombusPerimeter;whiteSpace=wrap;html=1;align=center;" parent="1" vertex="1">
          <mxGeometry x="550" y="210" width="120" height="60" as="geometry" />
        </mxCell>
        <mxCell id="d2EKSEdaq0tNLFLeg7t2-5" value="" style="endArrow=none;html=1;rounded=0;fontSize=12;startSize=8;endSize=8;curved=1;exitX=0.5;exitY=0;exitDx=0;exitDy=0;" parent="1" source="d2EKSEdaq0tNLFLeg7t2-6" target="ThEoqWvwTluzFiu1jKSh-9" edge="1">
          <mxGeometry relative="1" as="geometry">
            <mxPoint x="222.36" y="470" as="sourcePoint" />
            <mxPoint x="118.36000000000001" y="400" as="targetPoint" />
          </mxGeometry>
        </mxCell>
        <mxCell id="d2EKSEdaq0tNLFLeg7t2-6" value="관리" style="shape=rhombus;perimeter=rhombusPerimeter;whiteSpace=wrap;html=1;align=center;" parent="1" vertex="1">
          <mxGeometry x="290" y="500" width="120" height="60" as="geometry" />
        </mxCell>
        <mxCell id="d2EKSEdaq0tNLFLeg7t2-7" value="N" style="text;strokeColor=none;fillColor=none;spacingLeft=4;spacingRight=4;overflow=hidden;rotatable=0;points=[[0,0.5],[1,0.5]];portConstraint=eastwest;fontSize=12;whiteSpace=wrap;html=1;" parent="1" vertex="1">
          <mxGeometry x="350" y="472" width="40" height="30" as="geometry" />
        </mxCell>
        <mxCell id="d2EKSEdaq0tNLFLeg7t2-9" value="" style="endArrow=none;html=1;rounded=0;entryX=0.5;entryY=0;entryDx=0;entryDy=0;" parent="1" source="d2EKSEdaq0tNLFLeg7t2-6" target="ThEoqWvwTluzFiu1jKSh-36" edge="1">
          <mxGeometry relative="1" as="geometry">
            <mxPoint x="330" y="490" as="sourcePoint" />
            <mxPoint x="490" y="490" as="targetPoint" />
          </mxGeometry>
        </mxCell>
        <mxCell id="d2EKSEdaq0tNLFLeg7t2-10" value="1&lt;br&gt;" style="text;strokeColor=none;fillColor=none;spacingLeft=4;spacingRight=4;overflow=hidden;rotatable=0;points=[[0,0.5],[1,0.5]];portConstraint=eastwest;fontSize=12;whiteSpace=wrap;html=1;" parent="1" vertex="1">
          <mxGeometry x="350" y="560" width="40" height="30" as="geometry" />
        </mxCell>
        <mxCell id="d2EKSEdaq0tNLFLeg7t2-11" value="수량" style="ellipse;whiteSpace=wrap;html=1;align=center;fontSize=16;fontStyle=0" parent="1" vertex="1">
          <mxGeometry x="640" y="130" width="100" height="40" as="geometry" />
        </mxCell>
        <mxCell id="d2EKSEdaq0tNLFLeg7t2-12" value="" style="endArrow=none;html=1;rounded=0;fontSize=12;startSize=8;endSize=8;curved=1;exitX=0.5;exitY=1;exitDx=0;exitDy=0;entryX=1;entryY=0;entryDx=0;entryDy=0;" parent="1" source="d2EKSEdaq0tNLFLeg7t2-11" target="d2EKSEdaq0tNLFLeg7t2-2" edge="1">
          <mxGeometry relative="1" as="geometry">
            <mxPoint x="650" y="300" as="sourcePoint" />
            <mxPoint x="550" y="300" as="targetPoint" />
          </mxGeometry>
        </mxCell>
        <mxCell id="d2EKSEdaq0tNLFLeg7t2-13" value="구매일자" style="ellipse;whiteSpace=wrap;html=1;align=center;fontSize=16;fontStyle=0" parent="1" vertex="1">
          <mxGeometry x="720" y="180" width="100" height="40" as="geometry" />
        </mxCell>
        <mxCell id="d2EKSEdaq0tNLFLeg7t2-14" value="" style="endArrow=none;html=1;rounded=0;fontSize=12;startSize=8;endSize=8;curved=1;exitX=0;exitY=0.5;exitDx=0;exitDy=0;entryX=1;entryY=0;entryDx=0;entryDy=0;" parent="1" source="d2EKSEdaq0tNLFLeg7t2-13" target="d2EKSEdaq0tNLFLeg7t2-2" edge="1">
          <mxGeometry relative="1" as="geometry">
            <mxPoint x="710" y="340" as="sourcePoint" />
            <mxPoint x="550" y="300" as="targetPoint" />
          </mxGeometry>
        </mxCell>
        <mxCell id="d2EKSEdaq0tNLFLeg7t2-15" value="M" style="text;strokeColor=none;fillColor=none;spacingLeft=4;spacingRight=4;overflow=hidden;rotatable=0;points=[[0,0.5],[1,0.5]];portConstraint=eastwest;fontSize=12;whiteSpace=wrap;html=1;" parent="1" vertex="1">
          <mxGeometry x="520" y="215" width="40" height="30" as="geometry" />
        </mxCell>
        <mxCell id="d2EKSEdaq0tNLFLeg7t2-18" value="" style="endArrow=none;html=1;rounded=0;fontSize=12;startSize=8;endSize=8;curved=1;exitX=1;exitY=0.5;exitDx=0;exitDy=0;entryX=0;entryY=0.5;entryDx=0;entryDy=0;" parent="1" source="d2EKSEdaq0tNLFLeg7t2-19" target="ThEoqWvwTluzFiu1jKSh-41" edge="1">
          <mxGeometry relative="1" as="geometry">
            <mxPoint x="460" y="447" as="sourcePoint" />
            <mxPoint x="460" y="522" as="targetPoint" />
          </mxGeometry>
        </mxCell>
        <mxCell id="d2EKSEdaq0tNLFLeg7t2-19" value="제품색상" style="ellipse;shape=doubleEllipse;margin=3;whiteSpace=wrap;html=1;align=center;fontSize=16;fontColor=#FF0000;" parent="1" vertex="1">
          <mxGeometry x="420" y="387" width="100" height="40" as="geometry" />
        </mxCell>
        <mxCell id="d2EKSEdaq0tNLFLeg7t2-20" value="" style="endArrow=none;html=1;rounded=0;entryX=0.5;entryY=1;entryDx=0;entryDy=0;exitX=0.5;exitY=0;exitDx=0;exitDy=0;" parent="1" source="ThEoqWvwTluzFiu1jKSh-41" target="d2EKSEdaq0tNLFLeg7t2-2" edge="1">
          <mxGeometry relative="1" as="geometry">
            <mxPoint x="520" y="320" as="sourcePoint" />
            <mxPoint x="680" y="320" as="targetPoint" />
          </mxGeometry>
        </mxCell>
        <mxCell id="d2EKSEdaq0tNLFLeg7t2-21" value="N" style="text;strokeColor=none;fillColor=none;spacingLeft=4;spacingRight=4;overflow=hidden;rotatable=0;points=[[0,0.5],[1,0.5]];portConstraint=eastwest;fontSize=12;whiteSpace=wrap;html=1;" parent="1" vertex="1">
          <mxGeometry x="620" y="270" width="40" height="30" as="geometry" />
        </mxCell>
        <mxCell id="d2EKSEdaq0tNLFLeg7t2-22" value="1" style="text;strokeColor=none;fillColor=none;spacingLeft=4;spacingRight=4;overflow=hidden;rotatable=0;points=[[0,0.5],[1,0.5]];portConstraint=eastwest;fontSize=12;whiteSpace=wrap;html=1;" parent="1" vertex="1">
          <mxGeometry x="610" y="357" width="40" height="30" as="geometry" />
        </mxCell>
        <mxCell id="d2EKSEdaq0tNLFLeg7t2-23" value="1" style="text;strokeColor=none;fillColor=none;spacingLeft=4;spacingRight=4;overflow=hidden;rotatable=0;points=[[0,0.5],[1,0.5]];portConstraint=eastwest;fontSize=12;whiteSpace=wrap;html=1;" parent="1" vertex="1">
          <mxGeometry x="400" y="215" width="40" height="30" as="geometry" />
        </mxCell>
        <mxCell id="YLNoCjdPJDXp8hNyT3S9-1" value="고객" style="shape=table;startSize=30;container=1;collapsible=1;childLayout=tableLayout;fixedRows=1;rowLines=0;fontStyle=1;align=center;resizeLast=1;html=1;fontSize=16;" vertex="1" parent="1">
          <mxGeometry x="190" y="840" width="180" height="270" as="geometry" />
        </mxCell>
        <mxCell id="YLNoCjdPJDXp8hNyT3S9-2" value="" style="shape=tableRow;horizontal=0;startSize=0;swimlaneHead=0;swimlaneBody=0;fillColor=none;collapsible=0;dropTarget=0;points=[[0,0.5],[1,0.5]];portConstraint=eastwest;top=0;left=0;right=0;bottom=1;fontSize=16;" vertex="1" parent="YLNoCjdPJDXp8hNyT3S9-1">
          <mxGeometry y="30" width="180" height="30" as="geometry" />
        </mxCell>
        <mxCell id="YLNoCjdPJDXp8hNyT3S9-3" value="PK (PK)" style="shape=partialRectangle;connectable=0;fillColor=none;top=0;left=0;bottom=0;right=0;fontStyle=1;overflow=hidden;whiteSpace=wrap;html=1;fontSize=16;" vertex="1" parent="YLNoCjdPJDXp8hNyT3S9-2">
          <mxGeometry width="30" height="30" as="geometry">
            <mxRectangle width="30" height="30" as="alternateBounds" />
          </mxGeometry>
        </mxCell>
        <mxCell id="YLNoCjdPJDXp8hNyT3S9-4" value="고객코드" style="shape=partialRectangle;connectable=0;fillColor=none;top=0;left=0;bottom=0;right=0;align=left;spacingLeft=6;fontStyle=5;overflow=hidden;whiteSpace=wrap;html=1;fontSize=16;" vertex="1" parent="YLNoCjdPJDXp8hNyT3S9-2">
          <mxGeometry x="30" width="150" height="30" as="geometry">
            <mxRectangle width="150" height="30" as="alternateBounds" />
          </mxGeometry>
        </mxCell>
        <mxCell id="YLNoCjdPJDXp8hNyT3S9-5" value="" style="shape=tableRow;horizontal=0;startSize=0;swimlaneHead=0;swimlaneBody=0;fillColor=none;collapsible=0;dropTarget=0;points=[[0,0.5],[1,0.5]];portConstraint=eastwest;top=0;left=0;right=0;bottom=0;fontSize=16;" vertex="1" parent="YLNoCjdPJDXp8hNyT3S9-1">
          <mxGeometry y="60" width="180" height="30" as="geometry" />
        </mxCell>
        <mxCell id="YLNoCjdPJDXp8hNyT3S9-6" value="" style="shape=partialRectangle;connectable=0;fillColor=none;top=0;left=0;bottom=0;right=0;editable=1;overflow=hidden;whiteSpace=wrap;html=1;fontSize=16;" vertex="1" parent="YLNoCjdPJDXp8hNyT3S9-5">
          <mxGeometry width="30" height="30" as="geometry">
            <mxRectangle width="30" height="30" as="alternateBounds" />
          </mxGeometry>
        </mxCell>
        <mxCell id="YLNoCjdPJDXp8hNyT3S9-7" value="이메일&lt;br&gt;" style="shape=partialRectangle;connectable=0;fillColor=none;top=0;left=0;bottom=0;right=0;align=left;spacingLeft=6;overflow=hidden;whiteSpace=wrap;html=1;fontSize=16;" vertex="1" parent="YLNoCjdPJDXp8hNyT3S9-5">
          <mxGeometry x="30" width="150" height="30" as="geometry">
            <mxRectangle width="150" height="30" as="alternateBounds" />
          </mxGeometry>
        </mxCell>
        <mxCell id="YLNoCjdPJDXp8hNyT3S9-8" value="" style="shape=tableRow;horizontal=0;startSize=0;swimlaneHead=0;swimlaneBody=0;fillColor=none;collapsible=0;dropTarget=0;points=[[0,0.5],[1,0.5]];portConstraint=eastwest;top=0;left=0;right=0;bottom=0;fontSize=16;" vertex="1" parent="YLNoCjdPJDXp8hNyT3S9-1">
          <mxGeometry y="90" width="180" height="30" as="geometry" />
        </mxCell>
        <mxCell id="YLNoCjdPJDXp8hNyT3S9-9" value="" style="shape=partialRectangle;connectable=0;fillColor=none;top=0;left=0;bottom=0;right=0;editable=1;overflow=hidden;whiteSpace=wrap;html=1;fontSize=16;" vertex="1" parent="YLNoCjdPJDXp8hNyT3S9-8">
          <mxGeometry width="30" height="30" as="geometry">
            <mxRectangle width="30" height="30" as="alternateBounds" />
          </mxGeometry>
        </mxCell>
        <mxCell id="YLNoCjdPJDXp8hNyT3S9-10" value="전화번호" style="shape=partialRectangle;connectable=0;fillColor=none;top=0;left=0;bottom=0;right=0;align=left;spacingLeft=6;overflow=hidden;whiteSpace=wrap;html=1;fontSize=16;" vertex="1" parent="YLNoCjdPJDXp8hNyT3S9-8">
          <mxGeometry x="30" width="150" height="30" as="geometry">
            <mxRectangle width="150" height="30" as="alternateBounds" />
          </mxGeometry>
        </mxCell>
        <mxCell id="YLNoCjdPJDXp8hNyT3S9-11" value="" style="shape=tableRow;horizontal=0;startSize=0;swimlaneHead=0;swimlaneBody=0;fillColor=none;collapsible=0;dropTarget=0;points=[[0,0.5],[1,0.5]];portConstraint=eastwest;top=0;left=0;right=0;bottom=0;fontSize=16;" vertex="1" parent="YLNoCjdPJDXp8hNyT3S9-1">
          <mxGeometry y="120" width="180" height="30" as="geometry" />
        </mxCell>
        <mxCell id="YLNoCjdPJDXp8hNyT3S9-12" value="" style="shape=partialRectangle;connectable=0;fillColor=none;top=0;left=0;bottom=0;right=0;editable=1;overflow=hidden;whiteSpace=wrap;html=1;fontSize=16;" vertex="1" parent="YLNoCjdPJDXp8hNyT3S9-11">
          <mxGeometry width="30" height="30" as="geometry">
            <mxRectangle width="30" height="30" as="alternateBounds" />
          </mxGeometry>
        </mxCell>
        <mxCell id="YLNoCjdPJDXp8hNyT3S9-13" value="고객명" style="shape=partialRectangle;connectable=0;fillColor=none;top=0;left=0;bottom=0;right=0;align=left;spacingLeft=6;overflow=hidden;whiteSpace=wrap;html=1;fontSize=16;" vertex="1" parent="YLNoCjdPJDXp8hNyT3S9-11">
          <mxGeometry x="30" width="150" height="30" as="geometry">
            <mxRectangle width="150" height="30" as="alternateBounds" />
          </mxGeometry>
        </mxCell>
        <mxCell id="YLNoCjdPJDXp8hNyT3S9-14" value="" style="shape=tableRow;horizontal=0;startSize=0;swimlaneHead=0;swimlaneBody=0;fillColor=none;collapsible=0;dropTarget=0;points=[[0,0.5],[1,0.5]];portConstraint=eastwest;top=0;left=0;right=0;bottom=0;fontSize=16;" vertex="1" parent="YLNoCjdPJDXp8hNyT3S9-1">
          <mxGeometry y="150" width="180" height="30" as="geometry" />
        </mxCell>
        <mxCell id="YLNoCjdPJDXp8hNyT3S9-15" value="" style="shape=partialRectangle;connectable=0;fillColor=none;top=0;left=0;bottom=0;right=0;editable=1;overflow=hidden;whiteSpace=wrap;html=1;fontSize=16;" vertex="1" parent="YLNoCjdPJDXp8hNyT3S9-14">
          <mxGeometry width="30" height="30" as="geometry">
            <mxRectangle width="30" height="30" as="alternateBounds" />
          </mxGeometry>
        </mxCell>
        <mxCell id="YLNoCjdPJDXp8hNyT3S9-16" value="기본주소" style="shape=partialRectangle;connectable=0;fillColor=none;top=0;left=0;bottom=0;right=0;align=left;spacingLeft=6;overflow=hidden;whiteSpace=wrap;html=1;fontSize=16;" vertex="1" parent="YLNoCjdPJDXp8hNyT3S9-14">
          <mxGeometry x="30" width="150" height="30" as="geometry">
            <mxRectangle width="150" height="30" as="alternateBounds" />
          </mxGeometry>
        </mxCell>
        <mxCell id="YLNoCjdPJDXp8hNyT3S9-17" value="" style="shape=tableRow;horizontal=0;startSize=0;swimlaneHead=0;swimlaneBody=0;fillColor=none;collapsible=0;dropTarget=0;points=[[0,0.5],[1,0.5]];portConstraint=eastwest;top=0;left=0;right=0;bottom=0;fontSize=16;" vertex="1" parent="YLNoCjdPJDXp8hNyT3S9-1">
          <mxGeometry y="180" width="180" height="30" as="geometry" />
        </mxCell>
        <mxCell id="YLNoCjdPJDXp8hNyT3S9-18" value="" style="shape=partialRectangle;connectable=0;fillColor=none;top=0;left=0;bottom=0;right=0;editable=1;overflow=hidden;whiteSpace=wrap;html=1;fontSize=16;" vertex="1" parent="YLNoCjdPJDXp8hNyT3S9-17">
          <mxGeometry width="30" height="30" as="geometry">
            <mxRectangle width="30" height="30" as="alternateBounds" />
          </mxGeometry>
        </mxCell>
        <mxCell id="YLNoCjdPJDXp8hNyT3S9-19" value="상세주소&lt;span style=&quot;white-space: pre;&quot;&gt;&#x9;&lt;/span&gt;" style="shape=partialRectangle;connectable=0;fillColor=none;top=0;left=0;bottom=0;right=0;align=left;spacingLeft=6;overflow=hidden;whiteSpace=wrap;html=1;fontSize=16;" vertex="1" parent="YLNoCjdPJDXp8hNyT3S9-17">
          <mxGeometry x="30" width="150" height="30" as="geometry">
            <mxRectangle width="150" height="30" as="alternateBounds" />
          </mxGeometry>
        </mxCell>
        <mxCell id="YLNoCjdPJDXp8hNyT3S9-20" value="" style="shape=tableRow;horizontal=0;startSize=0;swimlaneHead=0;swimlaneBody=0;fillColor=none;collapsible=0;dropTarget=0;points=[[0,0.5],[1,0.5]];portConstraint=eastwest;top=0;left=0;right=0;bottom=0;fontSize=16;" vertex="1" parent="YLNoCjdPJDXp8hNyT3S9-1">
          <mxGeometry y="210" width="180" height="30" as="geometry" />
        </mxCell>
        <mxCell id="YLNoCjdPJDXp8hNyT3S9-21" value="" style="shape=partialRectangle;connectable=0;fillColor=none;top=0;left=0;bottom=0;right=0;editable=1;overflow=hidden;whiteSpace=wrap;html=1;fontSize=16;" vertex="1" parent="YLNoCjdPJDXp8hNyT3S9-20">
          <mxGeometry width="30" height="30" as="geometry">
            <mxRectangle width="30" height="30" as="alternateBounds" />
          </mxGeometry>
        </mxCell>
        <mxCell id="YLNoCjdPJDXp8hNyT3S9-22" value="가입일" style="shape=partialRectangle;connectable=0;fillColor=none;top=0;left=0;bottom=0;right=0;align=left;spacingLeft=6;overflow=hidden;whiteSpace=wrap;html=1;fontSize=16;" vertex="1" parent="YLNoCjdPJDXp8hNyT3S9-20">
          <mxGeometry x="30" width="150" height="30" as="geometry">
            <mxRectangle width="150" height="30" as="alternateBounds" />
          </mxGeometry>
        </mxCell>
        <mxCell id="YLNoCjdPJDXp8hNyT3S9-143" value="" style="shape=tableRow;horizontal=0;startSize=0;swimlaneHead=0;swimlaneBody=0;fillColor=none;collapsible=0;dropTarget=0;points=[[0,0.5],[1,0.5]];portConstraint=eastwest;top=0;left=0;right=0;bottom=0;fontSize=16;" vertex="1" parent="YLNoCjdPJDXp8hNyT3S9-1">
          <mxGeometry y="240" width="180" height="30" as="geometry" />
        </mxCell>
        <mxCell id="YLNoCjdPJDXp8hNyT3S9-144" value="" style="shape=partialRectangle;connectable=0;fillColor=none;top=0;left=0;bottom=0;right=0;editable=1;overflow=hidden;whiteSpace=wrap;html=1;fontSize=16;" vertex="1" parent="YLNoCjdPJDXp8hNyT3S9-143">
          <mxGeometry width="30" height="30" as="geometry">
            <mxRectangle width="30" height="30" as="alternateBounds" />
          </mxGeometry>
        </mxCell>
        <mxCell id="YLNoCjdPJDXp8hNyT3S9-145" value="지역코드(FK)" style="shape=partialRectangle;connectable=0;fillColor=none;top=0;left=0;bottom=0;right=0;align=left;spacingLeft=6;overflow=hidden;whiteSpace=wrap;html=1;fontSize=16;" vertex="1" parent="YLNoCjdPJDXp8hNyT3S9-143">
          <mxGeometry x="30" width="150" height="30" as="geometry">
            <mxRectangle width="150" height="30" as="alternateBounds" />
          </mxGeometry>
        </mxCell>
        <mxCell id="YLNoCjdPJDXp8hNyT3S9-66" value="구매" style="shape=table;startSize=30;container=1;collapsible=1;childLayout=tableLayout;fixedRows=1;rowLines=0;fontStyle=1;align=center;resizeLast=1;html=1;fontSize=16;" vertex="1" parent="1">
          <mxGeometry x="460" y="840" width="180" height="185" as="geometry" />
        </mxCell>
        <mxCell id="YLNoCjdPJDXp8hNyT3S9-67" value="" style="shape=tableRow;horizontal=0;startSize=0;swimlaneHead=0;swimlaneBody=0;fillColor=none;collapsible=0;dropTarget=0;points=[[0,0.5],[1,0.5]];portConstraint=eastwest;top=0;left=0;right=0;bottom=1;fontSize=16;" vertex="1" parent="YLNoCjdPJDXp8hNyT3S9-66">
          <mxGeometry y="30" width="180" height="30" as="geometry" />
        </mxCell>
        <mxCell id="YLNoCjdPJDXp8hNyT3S9-68" value="PK (PK)" style="shape=partialRectangle;connectable=0;fillColor=none;top=0;left=0;bottom=0;right=0;fontStyle=1;overflow=hidden;whiteSpace=wrap;html=1;fontSize=16;" vertex="1" parent="YLNoCjdPJDXp8hNyT3S9-67">
          <mxGeometry width="30" height="30" as="geometry">
            <mxRectangle width="30" height="30" as="alternateBounds" />
          </mxGeometry>
        </mxCell>
        <mxCell id="YLNoCjdPJDXp8hNyT3S9-69" value="구매번호" style="shape=partialRectangle;connectable=0;fillColor=none;top=0;left=0;bottom=0;right=0;align=left;spacingLeft=6;fontStyle=5;overflow=hidden;whiteSpace=wrap;html=1;fontSize=16;" vertex="1" parent="YLNoCjdPJDXp8hNyT3S9-67">
          <mxGeometry x="30" width="150" height="30" as="geometry">
            <mxRectangle width="150" height="30" as="alternateBounds" />
          </mxGeometry>
        </mxCell>
        <mxCell id="YLNoCjdPJDXp8hNyT3S9-70" value="" style="shape=tableRow;horizontal=0;startSize=0;swimlaneHead=0;swimlaneBody=0;fillColor=none;collapsible=0;dropTarget=0;points=[[0,0.5],[1,0.5]];portConstraint=eastwest;top=0;left=0;right=0;bottom=0;fontSize=16;" vertex="1" parent="YLNoCjdPJDXp8hNyT3S9-66">
          <mxGeometry y="60" width="180" height="30" as="geometry" />
        </mxCell>
        <mxCell id="YLNoCjdPJDXp8hNyT3S9-71" value="" style="shape=partialRectangle;connectable=0;fillColor=none;top=0;left=0;bottom=0;right=0;editable=1;overflow=hidden;whiteSpace=wrap;html=1;fontSize=16;" vertex="1" parent="YLNoCjdPJDXp8hNyT3S9-70">
          <mxGeometry width="30" height="30" as="geometry">
            <mxRectangle width="30" height="30" as="alternateBounds" />
          </mxGeometry>
        </mxCell>
        <mxCell id="YLNoCjdPJDXp8hNyT3S9-72" value="재품코드(FK)" style="shape=partialRectangle;connectable=0;fillColor=none;top=0;left=0;bottom=0;right=0;align=left;spacingLeft=6;overflow=hidden;whiteSpace=wrap;html=1;fontSize=16;" vertex="1" parent="YLNoCjdPJDXp8hNyT3S9-70">
          <mxGeometry x="30" width="150" height="30" as="geometry">
            <mxRectangle width="150" height="30" as="alternateBounds" />
          </mxGeometry>
        </mxCell>
        <mxCell id="YLNoCjdPJDXp8hNyT3S9-76" value="" style="shape=tableRow;horizontal=0;startSize=0;swimlaneHead=0;swimlaneBody=0;fillColor=none;collapsible=0;dropTarget=0;points=[[0,0.5],[1,0.5]];portConstraint=eastwest;top=0;left=0;right=0;bottom=0;fontSize=16;" vertex="1" parent="YLNoCjdPJDXp8hNyT3S9-66">
          <mxGeometry y="90" width="180" height="30" as="geometry" />
        </mxCell>
        <mxCell id="YLNoCjdPJDXp8hNyT3S9-77" value="" style="shape=partialRectangle;connectable=0;fillColor=none;top=0;left=0;bottom=0;right=0;editable=1;overflow=hidden;whiteSpace=wrap;html=1;fontSize=16;" vertex="1" parent="YLNoCjdPJDXp8hNyT3S9-76">
          <mxGeometry width="30" height="30" as="geometry">
            <mxRectangle width="30" height="30" as="alternateBounds" />
          </mxGeometry>
        </mxCell>
        <mxCell id="YLNoCjdPJDXp8hNyT3S9-78" value="고객코드(FK)" style="shape=partialRectangle;connectable=0;fillColor=none;top=0;left=0;bottom=0;right=0;align=left;spacingLeft=6;overflow=hidden;whiteSpace=wrap;html=1;fontSize=16;" vertex="1" parent="YLNoCjdPJDXp8hNyT3S9-76">
          <mxGeometry x="30" width="150" height="30" as="geometry">
            <mxRectangle width="150" height="30" as="alternateBounds" />
          </mxGeometry>
        </mxCell>
        <mxCell id="YLNoCjdPJDXp8hNyT3S9-138" value="" style="shape=tableRow;horizontal=0;startSize=0;swimlaneHead=0;swimlaneBody=0;fillColor=none;collapsible=0;dropTarget=0;points=[[0,0.5],[1,0.5]];portConstraint=eastwest;top=0;left=0;right=0;bottom=0;fontSize=16;" vertex="1" parent="YLNoCjdPJDXp8hNyT3S9-66">
          <mxGeometry y="120" width="180" height="30" as="geometry" />
        </mxCell>
        <mxCell id="YLNoCjdPJDXp8hNyT3S9-139" value="" style="shape=partialRectangle;connectable=0;fillColor=none;top=0;left=0;bottom=0;right=0;editable=1;overflow=hidden;whiteSpace=wrap;html=1;fontSize=16;" vertex="1" parent="YLNoCjdPJDXp8hNyT3S9-138">
          <mxGeometry width="30" height="30" as="geometry">
            <mxRectangle width="30" height="30" as="alternateBounds" />
          </mxGeometry>
        </mxCell>
        <mxCell id="YLNoCjdPJDXp8hNyT3S9-140" value="구매일자" style="shape=partialRectangle;connectable=0;fillColor=none;top=0;left=0;bottom=0;right=0;align=left;spacingLeft=6;overflow=hidden;whiteSpace=wrap;html=1;fontSize=16;" vertex="1" parent="YLNoCjdPJDXp8hNyT3S9-138">
          <mxGeometry x="30" width="150" height="30" as="geometry">
            <mxRectangle width="150" height="30" as="alternateBounds" />
          </mxGeometry>
        </mxCell>
        <mxCell id="YLNoCjdPJDXp8hNyT3S9-85" value="" style="shape=tableRow;horizontal=0;startSize=0;swimlaneHead=0;swimlaneBody=0;fillColor=none;collapsible=0;dropTarget=0;points=[[0,0.5],[1,0.5]];portConstraint=eastwest;top=0;left=0;right=0;bottom=0;fontSize=16;" vertex="1" parent="YLNoCjdPJDXp8hNyT3S9-66">
          <mxGeometry y="150" width="180" height="35" as="geometry" />
        </mxCell>
        <mxCell id="YLNoCjdPJDXp8hNyT3S9-86" value="" style="shape=partialRectangle;connectable=0;fillColor=none;top=0;left=0;bottom=0;right=0;editable=1;overflow=hidden;whiteSpace=wrap;html=1;fontSize=16;" vertex="1" parent="YLNoCjdPJDXp8hNyT3S9-85">
          <mxGeometry width="30" height="35" as="geometry">
            <mxRectangle width="30" height="35" as="alternateBounds" />
          </mxGeometry>
        </mxCell>
        <mxCell id="YLNoCjdPJDXp8hNyT3S9-87" value="수량" style="shape=partialRectangle;connectable=0;fillColor=none;top=0;left=0;bottom=0;right=0;align=left;spacingLeft=6;overflow=hidden;whiteSpace=wrap;html=1;fontSize=16;" vertex="1" parent="YLNoCjdPJDXp8hNyT3S9-85">
          <mxGeometry x="30" width="150" height="35" as="geometry">
            <mxRectangle width="150" height="35" as="alternateBounds" />
          </mxGeometry>
        </mxCell>
        <mxCell id="YLNoCjdPJDXp8hNyT3S9-106" value="지역" style="shape=table;startSize=30;container=1;collapsible=1;childLayout=tableLayout;fixedRows=1;rowLines=0;fontStyle=1;align=center;resizeLast=1;html=1;fontSize=16;" vertex="1" parent="1">
          <mxGeometry x="-70" y="940" width="180" height="110" as="geometry" />
        </mxCell>
        <mxCell id="YLNoCjdPJDXp8hNyT3S9-107" value="" style="shape=tableRow;horizontal=0;startSize=0;swimlaneHead=0;swimlaneBody=0;fillColor=none;collapsible=0;dropTarget=0;points=[[0,0.5],[1,0.5]];portConstraint=eastwest;top=0;left=0;right=0;bottom=1;fontSize=16;" vertex="1" parent="YLNoCjdPJDXp8hNyT3S9-106">
          <mxGeometry y="30" width="180" height="30" as="geometry" />
        </mxCell>
        <mxCell id="YLNoCjdPJDXp8hNyT3S9-108" value="PK (PK)" style="shape=partialRectangle;connectable=0;fillColor=none;top=0;left=0;bottom=0;right=0;fontStyle=1;overflow=hidden;whiteSpace=wrap;html=1;fontSize=16;" vertex="1" parent="YLNoCjdPJDXp8hNyT3S9-107">
          <mxGeometry width="30" height="30" as="geometry">
            <mxRectangle width="30" height="30" as="alternateBounds" />
          </mxGeometry>
        </mxCell>
        <mxCell id="YLNoCjdPJDXp8hNyT3S9-109" value="지역코드" style="shape=partialRectangle;connectable=0;fillColor=none;top=0;left=0;bottom=0;right=0;align=left;spacingLeft=6;fontStyle=5;overflow=hidden;whiteSpace=wrap;html=1;fontSize=16;" vertex="1" parent="YLNoCjdPJDXp8hNyT3S9-107">
          <mxGeometry x="30" width="150" height="30" as="geometry">
            <mxRectangle width="150" height="30" as="alternateBounds" />
          </mxGeometry>
        </mxCell>
        <mxCell id="YLNoCjdPJDXp8hNyT3S9-110" value="" style="shape=tableRow;horizontal=0;startSize=0;swimlaneHead=0;swimlaneBody=0;fillColor=none;collapsible=0;dropTarget=0;points=[[0,0.5],[1,0.5]];portConstraint=eastwest;top=0;left=0;right=0;bottom=0;fontSize=16;" vertex="1" parent="YLNoCjdPJDXp8hNyT3S9-106">
          <mxGeometry y="60" width="180" height="30" as="geometry" />
        </mxCell>
        <mxCell id="YLNoCjdPJDXp8hNyT3S9-111" value="" style="shape=partialRectangle;connectable=0;fillColor=none;top=0;left=0;bottom=0;right=0;editable=1;overflow=hidden;whiteSpace=wrap;html=1;fontSize=16;" vertex="1" parent="YLNoCjdPJDXp8hNyT3S9-110">
          <mxGeometry width="30" height="30" as="geometry">
            <mxRectangle width="30" height="30" as="alternateBounds" />
          </mxGeometry>
        </mxCell>
        <mxCell id="YLNoCjdPJDXp8hNyT3S9-112" value="&lt;font&gt;지역명&lt;/font&gt;" style="shape=partialRectangle;connectable=0;fillColor=none;top=0;left=0;bottom=0;right=0;align=left;spacingLeft=6;overflow=hidden;whiteSpace=wrap;html=1;fontSize=16;" vertex="1" parent="YLNoCjdPJDXp8hNyT3S9-110">
          <mxGeometry x="30" width="150" height="30" as="geometry">
            <mxRectangle width="150" height="30" as="alternateBounds" />
          </mxGeometry>
        </mxCell>
        <mxCell id="YLNoCjdPJDXp8hNyT3S9-119" value="" style="shape=tableRow;horizontal=0;startSize=0;swimlaneHead=0;swimlaneBody=0;fillColor=none;collapsible=0;dropTarget=0;points=[[0,0.5],[1,0.5]];portConstraint=eastwest;top=0;left=0;right=0;bottom=0;fontSize=16;" vertex="1" parent="YLNoCjdPJDXp8hNyT3S9-106">
          <mxGeometry y="90" width="180" height="20" as="geometry" />
        </mxCell>
        <mxCell id="YLNoCjdPJDXp8hNyT3S9-120" value="" style="shape=partialRectangle;connectable=0;fillColor=none;top=0;left=0;bottom=0;right=0;editable=1;overflow=hidden;whiteSpace=wrap;html=1;fontSize=16;" vertex="1" parent="YLNoCjdPJDXp8hNyT3S9-119">
          <mxGeometry width="30" height="20" as="geometry">
            <mxRectangle width="30" height="20" as="alternateBounds" />
          </mxGeometry>
        </mxCell>
        <mxCell id="YLNoCjdPJDXp8hNyT3S9-121" value="" style="shape=partialRectangle;connectable=0;fillColor=none;top=0;left=0;bottom=0;right=0;align=left;spacingLeft=6;overflow=hidden;whiteSpace=wrap;html=1;fontSize=16;" vertex="1" parent="YLNoCjdPJDXp8hNyT3S9-119">
          <mxGeometry x="30" width="150" height="20" as="geometry">
            <mxRectangle width="150" height="20" as="alternateBounds" />
          </mxGeometry>
        </mxCell>
        <mxCell id="YLNoCjdPJDXp8hNyT3S9-122" value="제품" style="shape=table;startSize=30;container=1;collapsible=1;childLayout=tableLayout;fixedRows=1;rowLines=0;fontStyle=1;align=center;resizeLast=1;html=1;fontSize=16;" vertex="1" parent="1">
          <mxGeometry x="730" y="840" width="180" height="170" as="geometry" />
        </mxCell>
        <mxCell id="YLNoCjdPJDXp8hNyT3S9-123" value="" style="shape=tableRow;horizontal=0;startSize=0;swimlaneHead=0;swimlaneBody=0;fillColor=none;collapsible=0;dropTarget=0;points=[[0,0.5],[1,0.5]];portConstraint=eastwest;top=0;left=0;right=0;bottom=1;fontSize=16;" vertex="1" parent="YLNoCjdPJDXp8hNyT3S9-122">
          <mxGeometry y="30" width="180" height="30" as="geometry" />
        </mxCell>
        <mxCell id="YLNoCjdPJDXp8hNyT3S9-124" value="PK (PK)" style="shape=partialRectangle;connectable=0;fillColor=none;top=0;left=0;bottom=0;right=0;fontStyle=1;overflow=hidden;whiteSpace=wrap;html=1;fontSize=16;" vertex="1" parent="YLNoCjdPJDXp8hNyT3S9-123">
          <mxGeometry width="30" height="30" as="geometry">
            <mxRectangle width="30" height="30" as="alternateBounds" />
          </mxGeometry>
        </mxCell>
        <mxCell id="YLNoCjdPJDXp8hNyT3S9-125" value="제품코드" style="shape=partialRectangle;connectable=0;fillColor=none;top=0;left=0;bottom=0;right=0;align=left;spacingLeft=6;fontStyle=5;overflow=hidden;whiteSpace=wrap;html=1;fontSize=16;" vertex="1" parent="YLNoCjdPJDXp8hNyT3S9-123">
          <mxGeometry x="30" width="150" height="30" as="geometry">
            <mxRectangle width="150" height="30" as="alternateBounds" />
          </mxGeometry>
        </mxCell>
        <mxCell id="YLNoCjdPJDXp8hNyT3S9-126" value="" style="shape=tableRow;horizontal=0;startSize=0;swimlaneHead=0;swimlaneBody=0;fillColor=none;collapsible=0;dropTarget=0;points=[[0,0.5],[1,0.5]];portConstraint=eastwest;top=0;left=0;right=0;bottom=0;fontSize=16;" vertex="1" parent="YLNoCjdPJDXp8hNyT3S9-122">
          <mxGeometry y="60" width="180" height="30" as="geometry" />
        </mxCell>
        <mxCell id="YLNoCjdPJDXp8hNyT3S9-127" value="" style="shape=partialRectangle;connectable=0;fillColor=none;top=0;left=0;bottom=0;right=0;editable=1;overflow=hidden;whiteSpace=wrap;html=1;fontSize=16;" vertex="1" parent="YLNoCjdPJDXp8hNyT3S9-126">
          <mxGeometry width="30" height="30" as="geometry">
            <mxRectangle width="30" height="30" as="alternateBounds" />
          </mxGeometry>
        </mxCell>
        <mxCell id="YLNoCjdPJDXp8hNyT3S9-128" value="&lt;font&gt;재품구분&lt;/font&gt;" style="shape=partialRectangle;connectable=0;fillColor=none;top=0;left=0;bottom=0;right=0;align=left;spacingLeft=6;overflow=hidden;whiteSpace=wrap;html=1;fontSize=16;" vertex="1" parent="YLNoCjdPJDXp8hNyT3S9-126">
          <mxGeometry x="30" width="150" height="30" as="geometry">
            <mxRectangle width="150" height="30" as="alternateBounds" />
          </mxGeometry>
        </mxCell>
        <mxCell id="YLNoCjdPJDXp8hNyT3S9-129" value="" style="shape=tableRow;horizontal=0;startSize=0;swimlaneHead=0;swimlaneBody=0;fillColor=none;collapsible=0;dropTarget=0;points=[[0,0.5],[1,0.5]];portConstraint=eastwest;top=0;left=0;right=0;bottom=0;fontSize=16;" vertex="1" parent="YLNoCjdPJDXp8hNyT3S9-122">
          <mxGeometry y="90" width="180" height="30" as="geometry" />
        </mxCell>
        <mxCell id="YLNoCjdPJDXp8hNyT3S9-130" value="" style="shape=partialRectangle;connectable=0;fillColor=none;top=0;left=0;bottom=0;right=0;editable=1;overflow=hidden;whiteSpace=wrap;html=1;fontSize=16;" vertex="1" parent="YLNoCjdPJDXp8hNyT3S9-129">
          <mxGeometry width="30" height="30" as="geometry">
            <mxRectangle width="30" height="30" as="alternateBounds" />
          </mxGeometry>
        </mxCell>
        <mxCell id="YLNoCjdPJDXp8hNyT3S9-131" value="제품명" style="shape=partialRectangle;connectable=0;fillColor=none;top=0;left=0;bottom=0;right=0;align=left;spacingLeft=6;overflow=hidden;whiteSpace=wrap;html=1;fontSize=16;" vertex="1" parent="YLNoCjdPJDXp8hNyT3S9-129">
          <mxGeometry x="30" width="150" height="30" as="geometry">
            <mxRectangle width="150" height="30" as="alternateBounds" />
          </mxGeometry>
        </mxCell>
        <mxCell id="YLNoCjdPJDXp8hNyT3S9-132" value="" style="shape=tableRow;horizontal=0;startSize=0;swimlaneHead=0;swimlaneBody=0;fillColor=none;collapsible=0;dropTarget=0;points=[[0,0.5],[1,0.5]];portConstraint=eastwest;top=0;left=0;right=0;bottom=0;fontSize=16;" vertex="1" parent="YLNoCjdPJDXp8hNyT3S9-122">
          <mxGeometry y="120" width="180" height="30" as="geometry" />
        </mxCell>
        <mxCell id="YLNoCjdPJDXp8hNyT3S9-133" value="" style="shape=partialRectangle;connectable=0;fillColor=none;top=0;left=0;bottom=0;right=0;editable=1;overflow=hidden;whiteSpace=wrap;html=1;fontSize=16;" vertex="1" parent="YLNoCjdPJDXp8hNyT3S9-132">
          <mxGeometry width="30" height="30" as="geometry">
            <mxRectangle width="30" height="30" as="alternateBounds" />
          </mxGeometry>
        </mxCell>
        <mxCell id="YLNoCjdPJDXp8hNyT3S9-134" value="가격" style="shape=partialRectangle;connectable=0;fillColor=none;top=0;left=0;bottom=0;right=0;align=left;spacingLeft=6;overflow=hidden;whiteSpace=wrap;html=1;fontSize=16;" vertex="1" parent="YLNoCjdPJDXp8hNyT3S9-132">
          <mxGeometry x="30" width="150" height="30" as="geometry">
            <mxRectangle width="150" height="30" as="alternateBounds" />
          </mxGeometry>
        </mxCell>
        <mxCell id="YLNoCjdPJDXp8hNyT3S9-135" value="" style="shape=tableRow;horizontal=0;startSize=0;swimlaneHead=0;swimlaneBody=0;fillColor=none;collapsible=0;dropTarget=0;points=[[0,0.5],[1,0.5]];portConstraint=eastwest;top=0;left=0;right=0;bottom=0;fontSize=16;" vertex="1" parent="YLNoCjdPJDXp8hNyT3S9-122">
          <mxGeometry y="150" width="180" height="20" as="geometry" />
        </mxCell>
        <mxCell id="YLNoCjdPJDXp8hNyT3S9-136" value="" style="shape=partialRectangle;connectable=0;fillColor=none;top=0;left=0;bottom=0;right=0;editable=1;overflow=hidden;whiteSpace=wrap;html=1;fontSize=16;" vertex="1" parent="YLNoCjdPJDXp8hNyT3S9-135">
          <mxGeometry width="30" height="20" as="geometry">
            <mxRectangle width="30" height="20" as="alternateBounds" />
          </mxGeometry>
        </mxCell>
        <mxCell id="YLNoCjdPJDXp8hNyT3S9-137" value="" style="shape=partialRectangle;connectable=0;fillColor=none;top=0;left=0;bottom=0;right=0;align=left;spacingLeft=6;overflow=hidden;whiteSpace=wrap;html=1;fontSize=16;" vertex="1" parent="YLNoCjdPJDXp8hNyT3S9-135">
          <mxGeometry x="30" width="150" height="20" as="geometry">
            <mxRectangle width="150" height="20" as="alternateBounds" />
          </mxGeometry>
        </mxCell>
        <mxCell id="YLNoCjdPJDXp8hNyT3S9-159" value="" style="edgeStyle=elbowEdgeStyle;fontSize=12;html=1;endArrow=ERoneToMany;startArrow=ERmandOne;rounded=0;startSize=8;endSize=8;" edge="1" parent="1" source="YLNoCjdPJDXp8hNyT3S9-2" target="YLNoCjdPJDXp8hNyT3S9-76">
          <mxGeometry width="100" height="100" relative="1" as="geometry">
            <mxPoint x="390" y="1180" as="sourcePoint" />
            <mxPoint x="450" y="950" as="targetPoint" />
          </mxGeometry>
        </mxCell>
        <mxCell id="YLNoCjdPJDXp8hNyT3S9-161" value="" style="edgeStyle=elbowEdgeStyle;fontSize=12;html=1;endArrow=ERoneToMany;startArrow=ERmandOne;rounded=0;startSize=8;endSize=8;exitX=0;exitY=0.5;exitDx=0;exitDy=0;" edge="1" parent="1" source="YLNoCjdPJDXp8hNyT3S9-123" target="YLNoCjdPJDXp8hNyT3S9-70">
          <mxGeometry width="100" height="100" relative="1" as="geometry">
            <mxPoint x="640" y="970" as="sourcePoint" />
            <mxPoint x="730" y="940" as="targetPoint" />
          </mxGeometry>
        </mxCell>
        <mxCell id="YLNoCjdPJDXp8hNyT3S9-162" value="" style="edgeStyle=elbowEdgeStyle;fontSize=12;html=1;endArrow=ERoneToMany;startArrow=ERmandOne;rounded=0;startSize=8;endSize=8;" edge="1" parent="1" source="YLNoCjdPJDXp8hNyT3S9-107" target="YLNoCjdPJDXp8hNyT3S9-143">
          <mxGeometry width="100" height="100" relative="1" as="geometry">
            <mxPoint x="370" y="1160" as="sourcePoint" />
            <mxPoint x="470" y="1060" as="targetPoint" />
          </mxGeometry>
        </mxCell>
      </root>
    </mxGraphModel>
  </diagram>
</mxfile>
